<?xml version="1.0" standalone="no"?>
<!DOCTYPE svg PUBLIC "-//W3C//DTD SVG 20010904//EN"
 "http://www.w3.org/TR/2001/REC-SVG-20010904/DTD/svg10.dtd">
<svg version="1.0" xmlns="http://www.w3.org/2000/svg"
 width="640.000000pt" height="1280.000000pt" viewBox="0 0 640.000000 1280.000000"
 preserveAspectRatio="xMidYMid meet">
<metadata>
Created by potrace 1.15, written by Peter Selinger 2001-2017
</metadata>
<g transform="translate(0.000000,1280.000000) scale(0.100000,-0.100000)"
fill="#000000" stroke="none">
<path d="M2447 12728 c-41 -69 -42 -72 -80 -270 -74 -380 -190 -585 -437 -769
-41 -31 -182 -129 -314 -218 -433 -294 -628 -453 -684 -559 -53 -100 -64 -158
-51 -291 28 -313 104 -631 234 -981 61 -162 139 -345 312 -725 339 -743 424
-1046 410 -1460 -8 -213 -32 -334 -122 -602 -158 -470 -204 -762 -184 -1156
18 -344 82 -664 303 -1511 153 -583 250 -971 326 -1291 121 -515 131 -556 176
-710 23 -82 84 -276 134 -430 150 -459 185 -630 184 -900 0 -233 -17 -315
-160 -786 -9 -30 88 -63 181 -64 91 0 124 13 183 75 101 103 169 373 179 710
7 213 -3 305 -63 596 -38 189 -46 247 -55 419 -6 110 -19 254 -30 320 -28 165
-34 290 -20 420 38 348 152 648 307 803 50 50 84 72 166 111 240 112 621 260
1168 456 602 215 794 299 904 396 211 189 118 456 -274 779 -275 228 -611 463
-935 655 -282 167 -397 247 -501 350 -184 184 -290 395 -379 755 -90 370 -103
580 -46 805 107 429 238 825 394 1190 116 272 186 479 251 746 97 397 154 896
127 1107 -14 110 -62 204 -151 292 -216 216 -649 575 -901 748 -179 123 -286
239 -359 387 -65 133 -84 227 -77 389 l5 121 -36 78 c-19 42 -38 77 -42 77 -3
0 -23 -28 -43 -62z m531 -1305 c569 -488 677 -584 697 -624 14 -26 13 -48 -10
-235 -15 -114 -35 -257 -46 -318 -81 -456 -243 -737 -560 -975 -58 -43 -64
-43 -117 -16 -1 1 25 134 58 295 33 161 66 342 75 402 20 142 19 377 -1 493
-30 177 -106 362 -182 447 -58 64 -114 95 -203 114 -103 22 -308 22 -379 1
-159 -47 -257 -185 -332 -467 -26 -99 -31 -137 -35 -280 -6 -203 5 -294 87
-715 33 -170 59 -317 58 -326 -2 -13 -22 -5 -96 40 -180 109 -285 214 -361
360 -82 158 -124 315 -221 810 -60 310 -61 315 -45 357 30 79 203 255 594 604
88 79 524 449 529 450 2 0 223 -188 490 -417z m509 -6419 c395 -246 724 -452
731 -458 10 -10 -6 -19 -72 -45 -108 -42 -243 -123 -481 -287 -379 -263 -551
-336 -790 -338 l-110 -1 -3 788 c-1 433 0 787 3 787 2 0 327 -201 722 -446z"/>
</g>
</svg>
