<?xml version="1.0" standalone="no"?>
<!DOCTYPE svg PUBLIC "-//W3C//DTD SVG 20010904//EN"
 "http://www.w3.org/TR/2001/REC-SVG-20010904/DTD/svg10.dtd">
<svg version="1.0" xmlns="http://www.w3.org/2000/svg"
 width="1280.000000pt" height="851.000000pt" viewBox="0 0 1280.000000 851.000000"
 preserveAspectRatio="xMidYMid meet">
<metadata>
Created by potrace 1.15, written by Peter Selinger 2001-2017
</metadata>
<g transform="translate(0.000000,851.000000) scale(0.100000,-0.100000)"
fill="#000000" stroke="none">
<path d="M5465 8504 c-616 -47 -1115 -179 -1625 -430 -748 -368 -1367 -942
-1793 -1662 -621 -1049 -757 -2331 -370 -3502 85 -258 229 -576 368 -810 411
-692 1004 -1256 1710 -1621 1140 -591 2483 -636 3664 -123 479 209 916 509
1302 894 709 709 1126 1591 1231 2610 16 161 16 629 0 790 -92 894 -422 1677
-991 2355 -114 137 -391 410 -534 528 -641 528 -1382 845 -2217 948 -158 19
-610 33 -745 23z m540 -804 c683 -59 1338 -322 1880 -756 142 -113 407 -378
519 -519 410 -515 654 -1090 743 -1751 25 -187 25 -648 0 -834 -91 -672 -331
-1239 -744 -1755 -113 -142 -378 -407 -518 -519 -783 -623 -1765 -882 -2735
-720 -886 148 -1667 625 -2211 1351 -376 501 -611 1118 -669 1753 -13 150 -13
459 1 613 97 1097 721 2088 1672 2659 291 175 600 303 933 387 143 36 396 79
533 90 143 12 459 12 596 1z"/>
<path d="M5470 7634 c-19 -2 -80 -9 -135 -14 -1192 -125 -2260 -921 -2739
-2044 -321 -751 -354 -1629 -89 -2406 125 -368 322 -727 568 -1035 111 -138
377 -405 515 -516 428 -344 944 -584 1480 -688 277 -54 641 -75 911 -52 704
60 1353 324 1895 771 49 40 155 139 235 219 535 537 863 1204 964 1966 22 164
30 499 17 667 -77 950 -526 1804 -1259 2393 -487 391 -1069 638 -1696 721
-115 15 -582 28 -667 18z"/>
<path d="M10990 8065 c-60 -32 -152 -195 -219 -388 -102 -295 -168 -663 -213
-1172 -19 -224 -16 -1009 5 -1285 51 -646 151 -1127 268 -1292 25 -35 26 -10
-21 -673 -11 -148 -47 -661 -80 -1140 -33 -478 -64 -919 -69 -980 -10 -131 -2
-164 46 -204 55 -45 140 -64 264 -58 120 5 166 17 210 54 59 50 59 46 38 508
-28 637 -78 1770 -89 2040 -6 132 -12 1052 -14 2045 -4 1735 -9 2095 -37 2345
-19 181 -39 226 -89 200z"/>
<path d="M96 7638 c-3 -40 -11 -163 -16 -273 -6 -110 -19 -319 -30 -465 -30
-419 -42 -661 -44 -860 -1 -170 1 -190 22 -250 56 -154 147 -249 279 -290 l58
-18 -3 -73 c-5 -145 -54 -1226 -132 -2894 -64 -1389 -65 -1422 -51 -1472 28
-107 110 -163 251 -171 173 -9 282 57 314 190 3 15 0 258 -9 540 -8 282 -19
671 -25 863 -6 193 -15 501 -20 685 -6 184 -19 655 -30 1045 -11 391 -24 838
-29 995 -5 157 -7 288 -4 293 2 4 12 7 21 7 30 0 139 57 180 95 80 72 132 180
151 314 11 85 -10 568 -44 1011 -15 194 -45 698 -45 763 0 36 -1 37 -35 37
l-35 0 0 -589 0 -590 -22 -15 c-31 -22 -71 -20 -94 5 -21 23 -23 73 -39 837
l-8 352 -42 0 -42 0 -6 -272 c-4 -150 -10 -414 -14 -587 -6 -286 -8 -316 -25
-333 -22 -22 -66 -23 -96 -2 l-22 15 0 590 0 589 -43 0 -44 0 -6 -227 c-4
-124 -7 -323 -7 -442 0 -344 -10 -501 -32 -523 -27 -27 -72 -23 -97 8 -21 26
-21 35 -21 605 l0 579 -29 0 c-29 0 -29 0 -35 -72z"/>
<path d="M12020 7441 c-129 -40 -316 -198 -425 -361 -120 -180 -181 -358 -192
-560 -14 -257 51 -529 178 -744 63 -106 195 -234 289 -279 41 -19 82 -37 90
-40 16 -5 15 -39 -29 -982 -6 -126 -25 -525 -41 -885 -17 -360 -39 -842 -50
-1070 -61 -1321 -65 -1428 -52 -1477 29 -108 112 -164 253 -171 171 -9 272 51
310 182 6 18 5 168 -1 361 -5 182 -19 647 -30 1035 -11 388 -24 854 -30 1035
-5 182 -19 654 -30 1050 -10 396 -22 763 -24 816 l-5 96 86 43 c182 90 331
282 412 530 49 150 65 255 65 440 -1 158 -3 185 -27 275 -68 254 -238 500
-436 633 -109 72 -224 99 -311 73z"/>
</g>
</svg>
