<?xml version="1.0" standalone="no"?>
<!DOCTYPE svg PUBLIC "-//W3C//DTD SVG 20010904//EN"
 "http://www.w3.org/TR/2001/REC-SVG-20010904/DTD/svg10.dtd">
<svg version="1.0" xmlns="http://www.w3.org/2000/svg"
 width="640.000000pt" height="1280.000000pt" viewBox="0 0 640.000000 1280.000000"
 preserveAspectRatio="xMidYMid meet">
<metadata>
Created by potrace 1.15, written by Peter Selinger 2001-2017
</metadata>
<g transform="translate(0.000000,1280.000000) scale(0.100000,-0.100000)"
fill="#000000" stroke="none">
<path d="M4338 12795 c-2 -3 -65 -9 -139 -15 -159 -11 -250 -35 -379 -97 -171
-82 -287 -229 -325 -408 -30 -144 -18 -234 57 -405 83 -188 140 -257 268 -320
58 -29 78 -47 101 -93 28 -55 26 -92 -11 -182 -45 -106 -60 -120 -150 -135
-90 -15 -129 -31 -173 -70 -19 -16 -60 -43 -92 -60 -57 -30 -58 -30 -219 -30
-105 0 -179 -5 -211 -14 -330 -90 -360 -104 -485 -222 -47 -45 -99 -89 -117
-98 -18 -9 -112 -39 -210 -67 -382 -108 -522 -177 -741 -366 -56 -49 -128
-104 -160 -123 -99 -59 -102 -63 -102 -149 l0 -76 135 -263 c74 -144 162 -311
197 -370 97 -166 314 -448 465 -604 129 -132 133 -137 133 -180 0 -52 -50
-273 -86 -382 -22 -64 -25 -88 -20 -137 7 -63 9 -61 -59 -71 -13 -2 -21 -12
-23 -30 -4 -36 48 -71 93 -62 17 3 63 -2 103 -10 86 -19 152 -20 207 -5 30 8
52 8 92 -2 78 -18 93 -8 148 104 59 119 65 168 36 336 -12 68 -21 151 -21 185
0 132 -53 254 -177 407 -174 217 -256 367 -320 589 -14 47 -47 143 -75 214
-51 132 -55 169 -20 180 9 3 79 17 154 31 165 30 271 62 401 121 54 25 121 48
148 51 44 5 49 4 57 -18 8 -22 36 -282 62 -584 5 -60 14 -202 20 -315 12 -249
4 -400 -44 -785 -19 -154 -42 -372 -52 -485 -15 -192 -18 -209 -47 -265 -27
-53 -31 -71 -33 -160 -2 -55 -17 -190 -35 -300 -38 -242 -45 -351 -30 -442 22
-124 128 -405 186 -491 14 -20 25 -47 25 -60 0 -32 -102 -415 -138 -522 -17
-47 -50 -135 -76 -197 -25 -62 -62 -167 -81 -234 -19 -67 -75 -221 -124 -343
-106 -262 -161 -424 -191 -561 -29 -135 -32 -141 -85 -166 -60 -28 -111 -92
-250 -311 -60 -95 -130 -202 -156 -238 -62 -87 -81 -126 -117 -250 -51 -169
-70 -264 -91 -443 -19 -160 -24 -181 -100 -405 -168 -499 -237 -658 -327 -747
-45 -46 -89 -71 -300 -176 -283 -139 -330 -175 -358 -270 -32 -107 -15 -203
46 -252 22 -18 77 -83 121 -146 91 -126 151 -183 247 -233 l65 -34 0 -50 c0
-56 24 -97 98 -165 34 -32 38 -39 28 -57 -10 -19 -4 -26 56 -75 90 -70 130
-94 176 -102 31 -6 41 -14 49 -36 13 -38 47 -44 218 -43 127 2 279 24 376 55
43 13 79 81 75 140 0 8 -21 38 -45 67 -24 28 -46 57 -48 63 -2 6 -27 15 -55
19 -39 7 -65 20 -110 55 -32 26 -64 54 -70 63 -22 28 -14 61 25 104 l37 41 -2
96 c-2 53 2 137 9 187 11 88 10 94 -12 135 -12 24 -29 71 -37 104 -7 32 -21
67 -30 77 -25 28 -12 114 45 283 85 256 126 347 295 650 154 277 211 355 259
355 11 0 37 -28 65 -70 107 -158 108 -159 112 -229 7 -109 6 -145 -2 -168 -7
-19 -2 -29 23 -51 30 -28 31 -30 20 -74 -16 -64 5 -107 68 -139 50 -26 49 -21
35 -112 -5 -36 -2 -41 71 -114 50 -50 76 -84 76 -99 0 -26 20 -48 63 -70 44
-22 87 -64 87 -85 0 -33 127 -79 217 -79 119 0 168 42 161 139 -3 47 -15 76
-68 170 -76 136 -86 187 -50 248 20 34 24 58 31 208 11 218 21 270 74 376 52
102 85 196 85 239 0 17 -10 44 -22 61 l-23 30 45 82 c59 110 83 138 229 271
232 211 345 289 686 481 116 65 260 152 320 194 263 182 364 244 563 345 140
71 228 123 261 152 60 54 118 139 196 288 49 92 59 118 63 175 8 123 -52 280
-199 516 -63 100 -389 575 -542 789 -23 32 -106 120 -185 194 -170 162 -197
205 -190 304 2 35 11 77 19 93 13 27 20 31 71 35 74 7 95 27 108 105 20 123
10 280 -31 456 -12 53 -11 62 19 165 17 60 48 177 68 259 21 87 69 240 116
365 85 229 95 250 106 250 4 0 40 -45 81 -100 100 -135 149 -180 199 -180 58
0 135 44 196 111 40 45 80 111 154 257 129 254 143 301 172 627 14 155 36 280
61 358 17 51 22 103 30 297 5 148 5 265 -1 315 -6 44 -10 103 -10 131 0 47 -3
54 -34 78 -21 16 -39 41 -47 68 -13 40 -20 46 -94 83 -77 39 -82 40 -183 40
-101 0 -105 1 -121 25 -33 51 -117 132 -182 176 -87 57 -247 133 -377 178 -56
19 -111 40 -121 45 -30 16 -51 74 -51 138 0 58 41 219 69 272 9 16 62 47 165
97 84 41 162 84 172 95 17 19 19 35 16 157 -2 97 -8 144 -18 165 -12 22 -14
44 -9 88 5 46 3 65 -9 84 -24 37 -19 58 19 83 25 16 35 30 35 48 0 37 -15 60
-97 148 -80 87 -92 112 -74 161 25 71 8 115 -88 213 -38 39 -41 45 -35 81 7
47 -8 78 -71 148 -54 61 -114 88 -176 80 -27 -3 -62 1 -101 14 -55 17 -158 26
-170 14z m1232 -2644 c0 -16 -28 -20 -40 -5 -10 12 -8 14 14 14 14 0 26 -4 26
-9z m35 -495 c23 -34 28 -106 17 -239 -10 -120 -26 -167 -57 -167 -21 0 -31
30 -46 132 l-12 87 27 31 c22 27 26 41 26 99 0 86 14 104 45 57z m-1362 -4696
c153 -63 190 -82 250 -126 53 -39 62 -53 53 -88 -5 -19 -24 -29 -107 -59 -281
-99 -495 -303 -699 -665 -28 -51 -79 -127 -112 -169 -70 -88 -343 -358 -444
-439 -99 -79 -231 -141 -331 -156 -107 -15 -147 -5 -151 39 -6 65 58 145 213
261 195 147 245 207 314 373 53 127 105 214 155 258 22 20 100 96 173 169 95
93 140 132 157 132 50 0 89 41 154 165 35 66 81 143 102 171 21 27 49 73 64
101 24 47 58 83 79 83 5 0 64 -23 130 -50z"/>
</g>
</svg>
